<svg width="30" height="30" viewBox="0 0 30 30" fill="none" xmlns="http://www.w3.org/2000/svg">
<g clip-path="url(#clip0_7_7348)">
<path d="M3.9749 4.42456H26.0249C27.8859 4.42456 29.3999 5.93859 29.3999 7.79956V22.1996C29.3999 24.0605 27.8859 25.5746 26.0249 25.5746H3.9749C2.11393 25.5746 0.599903 24.0605 0.599903 22.1996V7.79956C0.599903 5.93859 2.11393 4.42456 3.9749 4.42456ZM2.8499 22.1996C2.8499 22.8199 3.35458 23.3246 3.9749 23.3246H26.0249C26.6452 23.3246 27.1499 22.8199 27.1499 22.1996V7.79956C27.1499 7.17924 26.6452 6.67456 26.0249 6.67456H3.9749C3.35458 6.67456 2.8499 7.17924 2.8499 7.79956V22.1996Z" fill="currentColor"/>
<path d="M3.0409 5.82739L14.9999 14.7226L26.9588 5.82739L28.3018 7.63274L14.9999 17.5268L1.69798 7.63274L3.0409 5.82739Z" fill="currentColor"/>
</g>
</svg>
