<svg width="27" height="27" viewBox="0 0 27 27" fill="none" xmlns="http://www.w3.org/2000/svg">
<g clip-path="url(#clip0_7_7327)">
<path d="M18.3801 0.55957H8.66006C4.18724 0.55957 0.560059 4.18675 0.560059 8.65957V18.3796C0.560059 22.8524 4.18724 26.4796 8.66006 26.4796H18.3801C22.8529 26.4796 26.4801 22.8524 26.4801 18.3796V8.65957C26.4801 4.18675 22.8529 0.55957 18.3801 0.55957ZM24.0501 18.3796C24.0501 21.5062 21.5067 24.0496 18.3801 24.0496H8.66006C5.53346 24.0496 2.99006 21.5062 2.99006 18.3796V8.65957C2.99006 5.53297 5.53346 2.98957 8.66006 2.98957H18.3801C21.5067 2.98957 24.0501 5.53297 24.0501 8.65957V18.3796Z" fill="currentColor"/>
<path d="M13.52 7.03955C9.94146 7.03955 7.04004 9.94097 7.04004 13.5196C7.04004 17.0981 9.94146 19.9996 13.52 19.9996C17.0986 19.9996 20 17.0981 20 13.5196C20 9.94097 17.0986 7.03955 13.52 7.03955ZM13.52 17.5696C11.2877 17.5696 9.47004 15.7519 9.47004 13.5196C9.47004 11.2856 11.2877 9.46955 13.52 9.46955C15.7524 9.46955 17.57 11.2856 17.57 13.5196C17.57 15.7519 15.7524 17.5696 13.52 17.5696Z" fill="currentColor"/>
<path d="M20.486 7.4171C20.9629 7.4171 21.3495 7.03052 21.3495 6.55364C21.3495 6.07677 20.9629 5.69019 20.486 5.69019C20.0091 5.69019 19.6226 6.07677 19.6226 6.55364C19.6226 7.03052 20.0091 7.4171 20.486 7.4171Z" fill="currentColor"/>
</g>
</svg>
