<svg width="28" height="26" viewBox="0 0 28 26" fill="none" xmlns="http://www.w3.org/2000/svg">
<path d="M22.1992 25.0212C21.9893 25.0212 21.7807 24.9591 21.6018 24.8378L14.8431 20.2532L11.2181 22.8616C10.9338 23.066 10.5674 23.1175 10.2373 22.9995C9.90757 22.8812 9.65717 22.6081 9.5678 22.2694L7.74764 15.3716L1.24402 12.8848C0.834596 12.7282 0.563063 12.3365 0.560083 11.8981C0.557104 11.4597 0.823247 11.0643 1.23069 10.9022L25.9598 1.06228C26.0721 1.01462 26.1908 0.987094 26.3105 0.979716C26.3534 0.977163 26.3964 0.977163 26.4391 0.979575C26.6871 0.994329 26.9306 1.09534 27.1207 1.28175C27.1405 1.30105 27.1592 1.32077 27.1769 1.34134C27.3344 1.52122 27.4209 1.74055 27.4372 1.96399C27.4412 2.02017 27.4409 2.07706 27.436 2.13395C27.4326 2.17452 27.4267 2.21495 27.4185 2.2551L23.2444 24.1564C23.1773 24.5082 22.9378 24.8028 22.607 24.9399C22.4757 24.9944 22.3371 25.0212 22.1992 25.0212ZM15.4366 18.0844L21.457 22.168L24.7049 5.12635L12.9743 16.4142L15.4082 18.0652C15.418 18.0713 15.4273 18.0778 15.4366 18.0844ZM10.4248 17.1763L11.2309 20.2307L12.9676 18.981L10.6935 17.4383C10.5878 17.3668 10.4973 17.2777 10.4248 17.1763ZM4.55166 11.871L9.01735 13.5784C9.33726 13.7007 9.57872 13.9696 9.66611 14.3008L10.2324 16.4471C10.2584 16.1995 10.3706 15.9666 10.5529 15.7911L21.7305 5.03556L4.55166 11.871Z" fill="currentColor"/>
</svg>
