<svg width="33" height="23" viewBox="0 0 33 23" fill="none" xmlns="http://www.w3.org/2000/svg">
<path d="M16.479 22.9878C16.4764 22.9878 16.4735 22.9878 16.4706 22.9878C15.5146 22.9813 7.06385 22.9042 4.66957 22.2566C2.99629 21.8068 1.6754 20.4874 1.22439 18.8139C0.5979 16.4619 0.63778 11.9337 0.642131 11.5721C0.638022 11.2122 0.597658 6.64648 1.22245 4.27516C1.22318 4.27299 1.22366 4.27057 1.22439 4.26839C1.67032 2.61396 3.02094 1.25367 4.66546 0.802662C4.66957 0.801454 4.67392 0.800487 4.67803 0.799279C7.04524 0.177144 15.5127 0.101008 16.4706 0.0944824H16.4877C17.4461 0.101008 25.9193 0.17811 28.2916 0.826591C29.9605 1.27519 31.2805 2.59293 31.7327 4.26428C32.3826 6.63729 32.3224 11.2129 32.3159 11.5991C32.3205 11.9796 32.3584 16.4672 31.7356 18.831C31.7351 18.8335 31.7344 18.8356 31.7339 18.8378C31.2826 20.5113 29.962 21.8308 28.2868 22.2811C28.2846 22.2818 28.2822 22.2823 28.28 22.283C25.913 22.9049 17.4453 22.981 16.4877 22.9878C16.4848 22.9878 16.4819 22.9878 16.479 22.9878ZM3.61479 4.90986C3.06469 7.00298 3.11665 11.5104 3.11713 11.5559V11.5885C3.1007 12.8386 3.15847 16.4588 3.61504 18.1734C3.83643 18.9944 4.48781 19.6448 5.31394 19.867C7.08053 20.3448 13.9634 20.4951 16.479 20.5128C19.0012 20.4951 25.8942 20.3489 27.6477 19.8902C28.4712 19.6673 29.1204 19.0191 29.3432 18.1971C29.8003 16.4573 29.8576 12.8548 29.8409 11.6127C29.8409 11.5996 29.8409 11.5866 29.8411 11.5735C29.8639 10.3085 29.8191 6.64599 29.3454 4.9176C29.3449 4.91591 29.3444 4.91422 29.3442 4.91252C29.1218 4.08784 28.4702 3.43743 27.6441 3.21531C25.8947 2.73698 19.0007 2.58713 16.479 2.56949C13.9586 2.58713 7.07231 2.73312 5.31346 3.19138C4.50304 3.41616 3.83692 4.08978 3.61479 4.90986ZM30.5389 18.5159H30.5397H30.5389ZM13.3246 16.5528V6.52925L21.9871 11.5411L13.3246 16.5528Z" fill="currentColor"/>
</svg>
